<?xml version="1.0" encoding="utf-8"?>
<svg viewBox="0 0 20 20" xmlns="http://www.w3.org/2000/svg">
  <rect width="20.101" height="20.085" style="fill: rgb(32, 32, 32);"/>
  <circle style="fill: rgb(216, 216, 216);" cx="15" cy="15" r="14" transform="matrix(0.670026, 0, 0, 0.669499, 0, 0)"/>
  <circle style="fill: rgb(78,159,151);" cx="15" cy="15" r="12" transform="matrix(0.670026, 0, 0, 0.669499, 0, 0)"/>
  <path d="M 10.374 12.92 L 9.196 12.92 L 9.196 12.424 C 9.196 11.709 9.303 11.123 9.523 10.663 C 9.746 10.203 10.158 9.717 10.756 9.204 C 11.582 8.503 12.105 7.974 12.324 7.617 C 12.543 7.264 12.652 6.838 12.652 6.338 C 12.652 5.717 12.451 5.238 12.049 4.899 C 11.646 4.56 11.072 4.39 10.32 4.39 C 9.838 4.39 9.37 4.445 8.914 4.558 C 8.453 4.669 7.928 4.875 7.339 5.174 L 6.796 3.942 C 7.949 3.334 9.154 3.031 10.414 3.031 C 11.58 3.031 12.487 3.319 13.135 3.894 C 13.782 4.466 14.106 5.274 14.106 6.318 C 14.106 6.765 14.046 7.157 13.925 7.497 C 13.809 7.836 13.635 8.157 13.403 8.46 C 13.169 8.76 12.668 9.246 11.895 9.92 C 11.278 10.442 10.871 10.877 10.675 11.225 C 10.475 11.574 10.374 12.038 10.374 12.618 L 10.374 12.92 Z M 8.746 15.637 C 8.746 14.808 9.112 14.392 9.845 14.392 C 10.198 14.392 10.473 14.5 10.669 14.713 C 10.861 14.928 10.957 15.236 10.957 15.637 C 10.957 16.03 10.858 16.334 10.662 16.548 C 10.466 16.768 10.193 16.876 9.845 16.876 C 9.528 16.876 9.267 16.781 9.061 16.587 C 8.851 16.396 8.746 16.079 8.746 15.637 Z" style="fill: rgb(255, 255, 255); white-space: pre;"/>
</svg>